<svg width="45" height="43" viewBox="0 0 45 43" fill="none" xmlns="http://www.w3.org/2000/svg">
<g id="Group 188">
<path id="Vector" d="M26.6022 36.8492C27.2365 36.483 27.6976 35.8768 27.884 35.1639C28.0705 34.451 27.967 33.6898 27.5964 33.0479L26.1989 30.6274C25.8282 29.9854 25.2208 29.5152 24.5102 29.3202C23.7996 29.1252 23.044 29.2214 22.4097 29.5877C17.6264 32.3493 14.8314 27.5082 13.4339 25.0877C12.0364 22.6672 9.24143 17.8261 14.0247 15.0645C14.6591 14.6983 15.1201 14.092 15.3066 13.3791C15.493 12.6663 15.3895 11.9051 15.0189 11.2631L13.6214 8.84262C13.2508 8.20065 12.6433 7.73046 11.9327 7.53548C11.2221 7.3405 10.4666 7.4367 9.83226 7.80291C3.85311 11.255 1.66312 15.7467 8.65059 27.8494C15.6381 39.952 20.623 40.3013 26.6022 36.8492Z"  stroke-linecap="round" stroke-linejoin="round"/>
<path id="Vector_2" d="M39.3311 26.8538C40.6015 21.9856 39.8937 16.7891 37.363 12.4059C34.8324 8.02268 30.686 4.81138 25.8348 3.47751M32.0086 24.8445C32.387 23.3987 32.4779 21.8891 32.2758 20.4019C32.0738 18.9147 31.5829 17.4791 30.8312 16.177C30.0795 14.875 29.0816 13.732 27.8947 12.8135C26.7077 11.8949 25.355 11.2188 23.9136 10.8236M24.7254 22.8206C24.9794 21.8465 24.8377 20.8068 24.3313 19.9297C23.825 19.0527 22.9954 18.4101 22.0248 18.143" stroke-linecap="round" stroke-linejoin="round"/>
</g>
</svg>
