<svg width="40" height="40" viewBox="10 0 30 40" fill="none" xmlns="http://www.w3.org/2000/svg">
<g id="Layout/grid-8">
<g id="Icon">
<path d="M5 8.76666C5 6.6956 6.67893 5.01666 8.75 5.01666H13.9C15.9711 5.01666 17.65 6.6956 17.65 8.76666V13.9167C17.65 15.9877 15.9711 17.6667 13.9 17.6667H8.75C6.67893 17.6667 5 15.9877 5 13.9167V8.76666Z" fill=""/>
<path d="M22.35 8.76666C22.35 6.6956 24.0289 5.01666 26.1 5.01666H31.25C33.3211 5.01666 35 6.6956 35 8.76666V13.9167C35 15.9877 33.3211 17.6667 31.25 17.6667H26.1C24.0289 17.6667 22.35 15.9877 22.35 13.9167V8.76666Z" fill=""/>
<path d="M5 26.1C5 24.0289 6.67893 22.35 8.75 22.35H13.9C15.9711 22.35 17.65 24.0289 17.65 26.1V31.25C17.65 33.3211 15.9711 35 13.9 35H8.75C6.67893 35 5 33.3211 5 31.25V26.1Z" fill=""/>
<path d="M22.35 26.1C22.35 24.0289 24.0289 22.35 26.1 22.35H31.25C33.3211 22.35 35 24.0289 35 26.1V31.25C35 33.3211 33.3211 35 31.25 35H26.1C24.0289 35 22.35 33.3211 22.35 31.25V26.1Z" fill=""/>
</g>
</g>
</svg>
 