<svg width="58" height="68" viewBox="0 0 58 68" fill="none" xmlns="http://www.w3.org/2000/svg">
<g id="Group 8">
<path id="Vector" d="M4.99642 45.1798C4.35477 45.0987 3.76475 44.9806 3.16735 44.9659C2.05368 44.9511 1.25714 44.3906 0.593367 43.5867C-0.18104 42.6501 -0.114662 41.6028 0.320481 40.5555C0.822002 39.3754 1.3899 38.2249 1.8988 37.0448C2.30444 36.1155 2.72483 35.1789 3.03459 34.2127C3.26323 33.5121 3.32223 32.7598 3.43286 32.0222C3.45499 31.8821 3.39598 31.7272 3.35911 31.5797C3.04934 30.3333 2.68058 29.1016 2.43719 27.8478C2.13481 26.2695 2.24544 24.6691 2.51832 23.0981C3.28535 18.6066 4.93005 14.4248 7.32702 10.5675C9.46586 7.13059 12.4234 4.54923 16.0668 2.77178C18.8694 1.40735 21.8416 0.603443 24.9319 0.256804C29.3497 -0.237341 33.7306 -0.0234576 38.0673 0.942707C41.991 1.82037 45.6712 3.28805 48.9459 5.67028C52.545 8.28851 55.119 11.6738 56.5572 15.8998C57.516 18.7172 57.8552 21.6304 57.811 24.6027C57.7446 29.5073 56.6236 34.1832 54.8387 38.7264C54.3151 40.0539 53.7546 41.3668 53.2899 42.7164C52.6261 44.6266 52.5008 46.6253 52.4639 48.6241C52.3975 52.1863 52.6999 55.7338 53.135 59.2592C53.4153 61.5235 53.7251 63.7877 54.0275 66.0519C54.1233 66.7747 53.6661 67.3131 52.9359 67.3131C50.8487 67.3131 48.7541 67.3131 46.6669 67.3131C44.2625 67.3131 41.8582 67.2983 39.4465 67.2983C35.4491 67.2983 31.4516 67.3057 27.4542 67.3131C25.5366 67.3131 23.6191 67.3131 21.7015 67.3057C20.9492 67.3057 20.5067 66.9001 20.5509 66.1625C20.6026 65.2259 20.7206 64.2966 20.8165 63.3673C20.8681 62.8731 20.9271 62.3716 20.6616 61.907C20.5509 61.7005 20.4403 61.6267 20.1896 61.671C17.7926 62.1209 15.3809 62.438 12.9323 62.4749C11.6489 62.497 10.3656 62.4159 9.10447 62.1282C7.26802 61.7152 6.19122 60.5647 5.92571 58.7356C5.77821 57.7326 5.81508 56.7074 5.76346 55.697C5.76346 55.5642 5.76346 55.4315 5.77083 55.2987C5.81508 54.7603 5.64545 54.3178 5.19556 53.9933C5.07755 53.9121 4.98905 53.8015 4.88579 53.6983C4.29577 53.123 4.10401 52.4371 4.3474 51.6553C4.48015 51.2275 4.67929 50.8219 4.87104 50.4236C4.9448 50.2761 4.9448 50.1729 4.84154 50.0401C4.61291 49.7525 4.4064 49.4501 4.19252 49.1551C3.92701 48.7937 3.8975 48.4249 4.05239 48.0045C4.3474 47.2154 4.61291 46.4115 4.89317 45.6149C4.93005 45.5043 4.9448 45.3789 4.99642 45.1724V45.1798ZM51.7632 65.2037C51.7559 65.0857 51.7485 64.9825 51.7337 64.8866C51.4092 62.2462 51.0552 59.6133 50.7602 56.9655C50.4726 54.3399 50.3029 51.7069 50.3324 49.0592C50.3545 47.09 50.4357 45.1134 50.9667 43.2106C51.3502 41.8388 51.8812 40.5112 52.4049 39.1837C53.5923 36.1893 54.6544 33.158 55.1927 29.9645C55.7238 26.83 55.886 23.6881 55.473 20.5241C55.0452 17.279 53.9684 14.2773 52.0361 11.6074C50.7159 9.79307 49.1081 8.27376 47.2495 7.01996C44.3068 5.02125 41.0395 3.79695 37.5953 3.01517C35.6924 2.58002 33.7675 2.32926 31.8204 2.20388C28.5753 2.00475 25.3596 2.13751 22.1809 2.83816C15.9266 4.22472 11.1548 7.61736 8.15306 13.3332C6.737 16.0252 5.63808 18.8573 4.9153 21.8222C4.50228 23.5406 4.26627 25.296 4.48015 27.0365C4.64979 28.4305 5.1218 29.7875 5.46107 31.1593C5.5127 31.3732 5.56432 31.5945 5.56432 31.8157C5.56432 32.9737 5.40207 34.1242 4.95955 35.201C4.27364 36.8899 3.50661 38.542 2.77646 40.2088C2.56995 40.6735 2.38557 41.1455 2.18643 41.6175C2.05368 41.942 2.14956 42.2149 2.40032 42.4435C2.6732 42.6943 2.96084 42.8492 3.35173 42.8566C4.32527 42.8787 5.29144 42.9819 6.16172 43.454C6.914 43.8596 7.19426 44.4275 7.09839 45.2683C6.98776 46.2418 6.66324 47.149 6.3166 48.0562C6.23548 48.27 6.2576 48.4102 6.39036 48.5798C6.62637 48.8748 6.84025 49.1846 7.06151 49.4943C7.40815 49.9737 7.40815 50.3794 7.09101 50.8809C6.90663 51.1685 6.72962 51.4709 6.57474 51.7807C6.36086 52.1937 6.36823 52.2011 6.71487 52.5108C7.38602 53.1082 7.83592 53.831 7.88017 54.7529C7.89492 55.1217 7.88017 55.4831 7.88754 55.8518C7.90229 56.582 7.88754 57.3195 7.94655 58.0497C8.0498 59.3035 8.53657 59.8714 9.76825 60.1074C10.4615 60.2475 11.1769 60.3287 11.885 60.3508C14.6728 60.4393 17.4164 60.0631 20.1453 59.5321C20.8238 59.3994 21.377 59.5616 21.8564 60.0189C22.4464 60.5794 22.8447 61.2727 22.911 62.0692C22.97 62.792 22.8742 63.5295 22.8373 64.2597C22.8225 64.5695 22.7635 64.8718 22.7193 65.2111H51.7632V65.2037Z" fill="#EDF7FA"/>
<path id="Vector_2" d="M38.5908 24.942C38.6277 25.9155 38.6645 26.8522 38.7014 27.8036C39.0259 27.8774 39.3504 27.9511 39.675 28.0249C41.4229 28.4379 42.5587 30.0457 42.6915 31.6978C42.8685 33.9767 41.9097 35.7099 40.0658 36.9859C38.3843 38.1512 36.4888 38.7707 34.4754 39.0731C33.0298 39.2943 31.6137 39.2132 30.2124 38.7854C27.6163 37.9889 26.1191 36.2115 25.6324 33.5785C25.507 32.8926 25.4849 32.1845 25.4259 31.4839C25.4185 31.388 25.4259 31.2847 25.4259 31.1741C24.6515 31.2995 23.9213 31.4028 23.1911 31.5355C23.1174 31.5503 23.0436 31.683 22.9994 31.7715C22.6601 32.4574 22.3651 33.1655 21.989 33.8219C21.5096 34.6553 20.8605 35.3559 19.9534 35.7394C19.0683 36.1082 18.1981 36.0271 17.3499 35.5993C15.9412 34.8839 15.0636 33.6965 14.444 32.2878C13.9941 31.27 13.7508 30.208 13.6106 29.1017C13.5885 28.9468 13.4779 28.7624 13.3599 28.6591C11.2063 26.8891 9.73859 24.6986 9.33295 21.9181C8.79455 18.1788 9.9451 15.096 13.1239 12.9129C14.0826 12.2491 15.1816 11.8951 16.3174 11.6591C16.428 11.6369 16.5607 11.5779 16.6124 11.4894C17.7334 9.68986 19.3339 8.41393 21.1777 7.43302C24.0393 5.90633 27.0853 5.02129 30.3378 5.01392C34.0918 5.01392 37.7795 5.50806 41.3049 6.86512C44.2034 7.98616 46.77 9.60873 48.8277 11.9541C50.642 14.0192 51.5639 16.4383 51.4386 19.2188C51.4312 19.44 51.4386 19.676 51.3648 19.8825C51.2173 20.3324 51.3722 20.6864 51.5861 21.0773C52.803 23.3342 53.216 25.7164 52.5375 28.224C52.272 29.2049 51.7926 30.0826 51.0034 30.7464C49.8603 31.7125 48.5548 31.7789 47.2051 31.3069C45.2581 30.6283 44.0411 29.2049 43.3184 27.3316C43.1118 26.8006 42.9938 26.24 42.8168 25.6943C42.7873 25.6058 42.6767 25.5025 42.5882 25.4878C41.2901 25.296 39.9921 25.1116 38.694 24.9272C38.6572 24.9272 38.6203 24.9272 38.5834 24.9272L38.5908 24.942ZM25.1677 12.4408C25.2194 12.3376 25.2562 12.2343 25.3079 12.1311C25.6471 11.4968 25.9495 10.8257 26.3478 10.2356C27.7196 8.19267 29.7625 7.54365 32.0636 8.35493C33.1109 8.72369 34.0623 9.26209 34.9548 9.91112C35.1981 10.0881 35.4047 10.125 35.6997 10.0291C36.9092 9.63086 38.1409 9.3801 39.4242 9.50548C40.9288 9.66036 42.0646 10.5896 42.3448 11.9983C42.4407 12.4777 42.4186 12.9866 42.4112 13.4881C42.4112 13.8274 42.3227 14.1667 42.2637 14.5502C45.4277 14.7198 47.7509 16.4161 49.8529 18.6361C49.8529 18.5033 49.8529 18.4443 49.8529 18.378C49.7422 16.2539 48.931 14.4248 47.5149 12.8686C45.3318 10.479 42.6103 8.92283 39.5569 7.92716C37.219 7.1675 34.8072 6.82087 32.3586 6.64386C29.615 6.44472 26.9526 6.76924 24.3712 7.72803C22.461 8.43606 20.6835 9.36535 19.2085 10.7962C19.0167 10.9805 18.8397 11.187 18.6185 11.4231C20.8974 11.4378 23.0289 11.9246 25.1751 12.4261L25.1677 12.4408ZM29.4454 30.0014C28.6562 30.2522 27.9261 30.4808 27.2033 30.7242C27.1222 30.7537 27.0263 30.8865 27.0263 30.975C27.0337 31.5429 27.0411 32.1182 27.1001 32.6787C27.2992 34.4561 27.9703 35.9681 29.6445 36.8457C30.5812 37.3399 31.5916 37.5833 32.6389 37.6054C34.4532 37.6423 36.1717 37.2071 37.809 36.4548C38.6867 36.0566 39.4979 35.5403 40.147 34.8175C41.1574 33.6965 41.4229 32.0002 40.7812 30.7759C40.3535 29.9572 39.4611 29.4114 38.7309 29.4778C38.5613 30.3333 38.4507 31.1815 38.222 32.0002C37.8459 33.3646 37.0788 34.4709 35.8177 35.1789C33.937 36.2483 31.835 35.7542 30.6402 33.962C30.0944 33.1433 29.7625 32.2435 29.6077 31.2774C29.5413 30.8644 29.5044 30.4366 29.4528 30.0014H29.4454ZM24.5998 13.9528C24.5998 13.9528 24.5998 13.9528 24.5851 13.9454C22.6159 13.4734 20.6393 13.0235 18.5963 13.0309C17.5122 13.0309 17.4753 13.0456 17.2466 14.1077C16.959 15.4647 17.0033 16.8439 17.0991 18.2157C17.1434 18.8279 17.2835 19.4326 17.3868 20.0817C19.4371 19.1007 21.4948 19.1524 23.5452 19.6096C23.8992 17.6994 24.2458 15.8335 24.5998 13.9454V13.9528ZM13.5811 26.7194C13.6032 26.5277 13.618 26.4097 13.6327 26.2917C13.6475 26.1589 13.6696 26.0262 13.6918 25.9008C14.0089 24.0938 14.5842 22.4049 15.9412 21.0847C16.0002 21.0257 16.0297 20.8782 16.0002 20.7897C15.5577 19.4769 15.4397 18.1198 15.4545 16.748C15.4618 15.6491 15.4545 14.5502 15.7642 13.4586C15.6831 13.466 15.6462 13.4586 15.6093 13.4808C13.913 14.0265 12.6076 15.0738 11.7447 16.6226C10.4761 18.9016 10.513 21.2617 11.4644 23.6366C11.9291 24.7945 12.6445 25.7901 13.5885 26.7121L13.5811 26.7194ZM16.8189 22.4565C16.723 22.5598 16.6492 22.6261 16.5902 22.7073C16.487 22.8474 16.3837 22.9875 16.2952 23.135C15.4766 24.5585 15.1226 26.0925 15.1373 27.7225C15.1373 27.8552 15.2406 28.047 15.3512 28.106C16.1551 28.5264 16.9443 28.9763 17.785 29.3008C19.0241 29.7876 20.3074 30.09 21.6571 30.0457C21.8415 30.0457 21.93 29.9941 21.9742 29.8097C22.048 29.4926 22.1512 29.1828 22.225 28.8657C22.3946 28.1355 22.5495 27.4053 22.7191 26.6457C20.2853 25.886 18.2644 24.6101 16.8189 22.4565ZM44.1518 23.8947C44.4837 23.8504 44.8155 23.8136 45.1474 23.7619C46.9323 23.4448 48.3409 22.5524 49.3514 21.0331C49.4767 20.8413 49.4767 20.7086 49.3292 20.5242C48.6581 19.6613 47.9058 18.8721 47.0576 18.1788C45.6121 16.9914 43.9969 16.2096 42.1014 16.1211C41.9687 16.1211 41.7843 16.1432 41.7179 16.2318C41.5778 16.4014 41.5704 16.5931 41.7327 16.807C42.8463 18.3337 43.4806 20.0595 43.8051 21.9107C43.9231 22.5598 44.0338 23.2088 44.1591 23.8947H44.1518ZM44.4025 25.4583C44.5943 26.299 44.8524 27.0513 45.2728 27.752C45.9145 28.8214 46.7995 29.5958 48.0385 29.9056C49.1153 30.1711 49.9414 29.8244 50.5167 28.8804C50.6568 28.6444 50.7822 28.3936 50.878 28.1429C51.3427 26.8817 51.3501 25.591 51.0993 24.2856C50.9665 23.5997 50.76 22.9359 50.4208 22.2721C48.9162 24.3003 46.8659 25.2444 44.4099 25.4583H44.4025ZM37.0788 29.2049C36.5552 29.2049 36.0832 29.2418 35.6185 29.2049C34.3205 29.0943 33.0224 28.9542 31.7244 28.8214C31.4662 28.7919 31.1565 28.9615 31.1343 29.1754C30.9795 30.5841 31.186 31.919 31.9825 33.1212C32.4177 33.7702 33.0151 34.1611 33.8263 34.1316C34.7114 34.1021 35.4047 33.6743 35.943 33.0032C36.806 31.919 36.9756 30.621 37.0715 29.2049H37.0788ZM38.2441 14.8821C37.1895 13.9159 36.1717 12.9792 35.1465 12.05C35.0875 11.9983 34.9474 11.9836 34.881 12.0131C34.1951 12.345 33.4944 12.6547 32.8454 13.0456C32.1595 13.4513 31.6064 14.0192 31.1565 14.6239C32.2333 15.3541 33.2879 16.0769 34.3205 16.7702C34.9326 16.4235 35.53 16.0326 36.1717 15.7229C36.806 15.4131 37.4845 15.1845 38.2515 14.8821H38.2441ZM29.674 13.938C30.6402 12.5957 31.9161 11.5484 33.5387 10.8625C32.4693 10.2135 31.4515 9.63823 30.2198 9.60873C29.556 9.5866 28.9734 9.80049 28.4719 10.2135C27.6237 10.9142 27.1443 11.8582 26.7165 12.8465C27.7048 13.2079 28.6636 13.5619 29.674 13.938ZM30.2714 15.9589C29.4085 17.5741 28.8333 19.204 28.3244 20.9003C29.2831 21.1585 30.2051 21.4092 31.127 21.66C31.6727 20.3177 32.2775 19.0712 33.1847 17.8912C32.2185 17.2495 31.2745 16.6226 30.2788 15.9589H30.2714ZM22.9478 25.0231C23.0879 23.7398 23.228 22.4786 23.3755 21.1953C21.5686 20.7823 19.8133 20.6274 18.1096 21.4903C18.9208 22.8622 20.6245 24.3003 22.9551 25.0231H22.9478ZM40.7812 18.3042C40.3535 19.0712 39.9478 19.8235 39.5274 20.5684C39.1071 21.3133 38.6719 22.0509 38.2515 22.7958C38.104 23.0613 38.1704 23.2088 38.4802 23.2678C39.4537 23.4522 40.4199 23.6366 41.3934 23.7988C41.7548 23.8578 42.1309 23.8652 42.5071 23.9021C42.3891 22.3606 41.7253 19.4843 40.7812 18.3116V18.3042ZM15.4102 30.0014C15.4397 30.5251 15.838 31.624 16.2436 32.332C16.6566 33.0474 17.1729 33.667 17.9031 34.0874C18.6775 34.5299 19.3117 34.4488 19.9608 33.8292C20.5434 33.2687 20.9048 32.5607 21.2367 31.8379C21.2662 31.7789 21.2736 31.7125 21.2957 31.6388C19.2011 31.5576 17.2761 30.9381 15.4102 30.0014ZM26.2003 14.3584C25.6766 16.2244 25.4259 18.0977 25.1308 19.9784C25.6914 20.1333 26.2298 20.2808 26.7165 20.4136C27.3877 18.6804 28.0441 16.9914 28.7152 15.2656C27.9261 14.978 27.0779 14.6682 26.2003 14.3511V14.3584ZM27.8671 22.427C27.6385 23.7398 27.4098 25.0157 27.1886 26.3064C28.1178 26.5056 28.9586 26.6899 29.7773 26.8669C30.0428 25.6131 30.3009 24.3888 30.5591 23.1572C29.7035 22.9212 28.8333 22.6851 27.8671 22.4196V22.427ZM37.5361 20.9298C38.2368 19.6096 38.9448 18.2747 39.6676 16.9398C39.7856 16.7185 39.6381 16.6079 39.5274 16.4973C39.4389 16.4161 39.2914 16.335 39.1882 16.3571C38.7973 16.4383 38.4138 16.5415 38.0376 16.6743C37.1305 16.984 36.2676 17.3897 35.5448 17.9207C36.2086 18.9164 36.8576 19.8973 37.5361 20.9298ZM36.806 11.3419C36.9535 11.4821 37.0641 11.5706 37.1673 11.6738C38.0671 12.5884 38.9743 13.4881 39.8593 14.4174C40.0658 14.6313 40.265 14.5797 40.4641 14.5207C40.56 14.4912 40.6559 14.3289 40.6706 14.2183C40.7444 13.7463 40.8403 13.2743 40.8476 12.8022C40.855 11.8508 40.3535 11.2682 39.4242 11.1133C38.5539 10.9584 37.7057 11.1207 36.8133 11.3493L36.806 11.3419ZM34.2467 18.9901C33.701 20.0079 33.1921 20.9519 32.6758 21.9181C33.9591 22.2131 35.1686 22.486 36.4446 22.7736C35.9873 21.3502 35.2793 20.1554 34.2467 18.9901ZM31.3851 26.8669C31.3851 26.8669 31.4515 26.8964 31.4884 26.9112C32.7643 26.0704 34.055 25.237 35.2129 24.1086C34.1656 23.8799 33.1773 23.6734 32.1374 23.4448C31.8793 24.6248 31.6359 25.7459 31.3851 26.8669ZM25.6324 25.8934C25.8758 24.5732 26.1044 23.2825 26.3478 21.9624C25.8905 21.837 25.4259 21.7042 24.9317 21.5715C24.7768 22.9212 24.6367 24.2192 24.4818 25.5541C24.8653 25.6648 25.2415 25.7754 25.625 25.8934H25.6324ZM33.642 27.4938C34.7999 27.5602 35.9283 27.6192 37.1231 27.6856C37.0641 26.6531 37.0125 25.6869 36.9608 24.7429C35.8398 25.6721 34.763 26.5646 33.642 27.5012V27.4938ZM24.2458 27.1472C24.0467 28.047 23.8475 28.932 23.6337 29.8613C24.2679 29.7433 24.8506 29.6327 25.4701 29.5147V27.5012C25.0866 27.3906 24.6883 27.28 24.2458 27.1546V27.1472ZM27.1001 27.9142C27.0779 28.3051 27.0632 28.6813 27.0411 29.1164C27.7491 28.8657 28.3981 28.6444 29.0398 28.4158C29.0398 28.3936 29.025 28.3641 29.025 28.342C28.3907 28.2019 27.7638 28.0617 27.1001 27.9142Z" fill="#EDF7FA"/>
</g>
</svg>
