<svg width="30" height="30" viewBox="0 0 30 30" fill="none" xmlns="http://www.w3.org/2000/svg">
<g id="&#208;&#156;&#208;&#190;&#208;&#184; &#208;&#176;&#208;&#189;&#208;&#186;&#208;&#181;&#209;&#130;&#209;&#139;">
<path d="M0 3.52941C0 1.58017 1.67893 0 3.75 0H26.25C28.3211 0 30 1.58017 30 3.52941V8.82353C30 10.7728 28.3211 12.3529 26.25 12.3529H3.75C1.67893 12.3529 0 10.7728 0 8.82353V3.52941Z" fill=""/>
<path d="M0 21.1765C0 19.2272 1.67893 17.6471 3.75 17.6471H26.25C28.3211 17.6471 30 19.2272 30 21.1765V26.4706C30 28.4198 28.3211 30 26.25 30H3.75C1.67893 30 0 28.4198 0 26.4706V21.1765Z" fill=""/>
</g>
</svg>
