<svg width="70" height="67" viewBox="0 0 70 67" fill="none" xmlns="http://www.w3.org/2000/svg">
<path id="Vector" d="M53.2549 66.9999C53.3778 66.954 53.4976 66.905 53.6912 66.8315C52.2377 66.6447 51.1837 65.7783 50.0222 65.1537C45.0073 62.4563 40.0046 59.7283 35.0081 56.9911C34.6486 56.7951 34.4028 56.7982 34.0463 56.9788C28.254 59.9212 22.4524 62.8451 16.6539 65.7752C16.4849 65.8609 16.3036 65.9314 16.1346 66.0171C14.1065 67.0703 11.8448 65.6527 11.6697 63.6106C11.6082 62.8849 11.7619 62.1256 11.8971 61.3969C12.5117 58.0811 13.157 54.7713 13.7838 51.4585C14.3339 48.556 14.8778 45.6535 15.4094 42.7509C15.4309 42.6254 15.3479 42.4386 15.2496 42.3407C12.3549 39.4259 9.45415 36.5172 6.55336 33.6055C4.71271 31.7593 2.86899 29.9131 1.03756 28.0577C-0.213099 26.7901 -0.34216 25.0908 0.699543 23.7437C1.20042 23.0946 1.88874 22.7639 2.69076 22.6598C5.88655 22.2465 9.08234 21.8423 12.275 21.429C15.0898 21.0647 17.9045 20.6911 20.7224 20.3237C21.4168 20.2319 22.1144 20.1737 22.8027 20.0482C22.9871 20.0145 23.1991 19.8277 23.2913 19.6532C24.4682 17.4059 25.6297 15.1494 26.7913 12.8929C28.6842 9.21573 30.5617 5.53246 32.4638 1.86144C33.2904 0.269336 34.7377 -0.333826 36.4217 0.177484C37.2175 0.419361 37.7399 0.982721 38.0964 1.69611C38.5542 2.61463 38.9721 3.55458 39.4146 4.48229C41.8023 9.49741 44.2114 14.5064 46.5652 19.5368C46.8694 20.1859 47.2781 20.4156 47.9234 20.5135C50.3264 20.8779 52.7232 21.2759 55.1232 21.6586C57.6614 22.0658 60.1995 22.47 62.7377 22.8772C64.3203 23.1313 65.9028 23.3855 67.4853 23.6457C68.2197 23.7651 68.822 24.108 69.2737 24.7081C69.624 25.1704 69.8668 25.6542 69.8269 26.2696L70.002 25.9298V27.0718C69.9498 27.1514 69.8637 27.2249 69.8514 27.3106C69.7316 28.0362 69.3352 28.5935 68.8159 29.0895C67.5621 30.2805 66.3176 31.4837 65.0608 32.6686C61.61 35.9233 58.1622 39.184 54.6807 42.405C54.1552 42.8918 54.0231 43.3663 54.1306 44.0307C54.5516 46.5965 54.9357 49.1653 55.3383 51.7341C55.8576 55.0408 56.383 58.3474 56.8931 61.6541C57.016 62.441 57.1175 63.237 57.1697 64.03C57.2158 64.7618 56.8901 65.3864 56.4138 65.9283C55.9375 66.4702 55.3721 66.8407 54.5055 66.7795C54.7114 66.8836 54.822 66.9417 54.9326 66.9968C54.3703 66.9968 53.811 66.9968 53.2487 66.9968L53.2549 66.9999ZM54.5977 63.6993C54.5977 63.681 54.5946 63.6289 54.5854 63.5799C54.1798 60.9622 53.7803 58.3444 53.3716 55.7266C53.0336 53.5742 52.6833 51.4218 52.3422 49.2694C52.038 47.3405 51.7737 45.4055 51.4234 43.4858C51.2483 42.5305 51.4511 41.8171 52.1886 41.1497C53.9985 39.5086 55.75 37.8062 57.5292 36.1315C60.4208 33.4096 63.3124 30.6938 66.2039 27.975C66.5112 27.6872 66.8462 27.4239 67.1074 27.1024C67.2395 26.9401 67.2856 26.6646 67.2702 26.4472C67.261 26.3431 67.0213 26.2053 66.8677 26.1778C65.5248 25.9543 64.1789 25.7552 62.833 25.5409C58.912 24.9102 54.9941 24.2795 51.0731 23.6457C49.3892 23.3732 47.7083 23.0977 46.0244 22.8221C45.4528 22.7272 45.0472 22.421 44.826 21.8791C44.7092 21.5974 44.5771 21.3249 44.4449 21.0493C42.0143 15.9546 39.5837 10.8629 37.1561 5.76515C36.7259 4.86194 36.3141 3.94648 35.8808 3.04327C35.6995 2.66361 35.3615 2.50747 35.088 2.68199C34.9405 2.7769 34.833 2.95448 34.747 3.11981C32.7557 6.97454 30.7707 10.8323 28.7856 14.6932C27.5779 17.0415 26.3703 19.3868 25.1657 21.7382C24.9384 22.1853 24.5665 22.4363 24.0902 22.5037C22.5261 22.7211 20.9621 22.9201 19.398 23.1191C17.4928 23.364 15.5845 23.6028 13.6763 23.8508C11.6451 24.1141 9.61394 24.3836 7.5797 24.653C6.07707 24.852 4.57751 25.048 3.07795 25.2562C2.62009 25.3205 2.47566 25.6818 2.74915 26.0614C2.85977 26.2145 2.99805 26.3492 3.13018 26.4839C5.18286 28.5353 7.23554 30.5836 9.28822 32.6319C11.9801 35.317 14.6657 38.0114 17.3729 40.6812C17.9752 41.2752 18.2948 41.909 18.0551 42.7571C17.9998 42.95 17.9875 43.1551 17.9476 43.3572C17.1671 47.5058 16.3866 51.6514 15.606 55.8001C15.1513 58.2158 14.6995 60.6345 14.2478 63.0503C14.1495 63.583 14.4722 63.8524 14.9915 63.6779C15.099 63.6412 15.2066 63.5983 15.308 63.5463C19.5977 61.3755 23.8874 59.2047 28.1772 57.0339C30.0147 56.1032 31.8585 55.1847 33.6899 54.2447C34.3229 53.9202 34.9129 53.9355 35.5367 54.2845C37.7799 55.5368 40.0292 56.7768 42.2847 58.0076C45.333 59.6701 48.3874 61.3204 51.4357 62.9798C52.1947 63.3932 52.9445 63.8279 53.7158 64.2168C54.272 64.4954 54.5793 64.3056 54.5885 63.7055L54.5977 63.6993Z" fill="#EDF7FA"/>
</svg>
