<svg width="48" height="68" viewBox="0 0 48 68" fill="none" xmlns="http://www.w3.org/2000/svg">
<path id="Vector" d="M26.4508 0.00012207L25.4057 0.118494C25.4057 0.13974 25.3996 0.157951 25.3965 0.179197C25.7827 0.212584 26.1658 0.239901 26.552 0.279358C28.4706 0.479679 30.2759 1.0685 31.9708 1.95174C37.0923 4.62269 40.2369 8.77177 41.325 14.4081C41.5119 15.3793 41.6253 16.3779 41.6315 17.3674C41.6591 21.7987 41.6683 26.2301 41.6131 30.6614C41.5763 33.5964 39.4033 36.3281 36.6203 37.1203C36.4333 37.1749 36.2464 37.2265 36.0564 37.2781L36.0318 37.4026C36.2494 37.5027 36.4609 37.612 36.6847 37.7C38.4102 38.3768 40.004 39.2813 41.4261 40.462C44.8037 43.2665 46.9185 46.8207 47.697 51.1185C47.8962 52.2263 47.9636 53.3676 47.982 54.4966C48.0188 56.8003 48.0096 59.104 47.9636 61.4077C47.8993 64.6189 45.4688 67.3415 42.2659 67.8302C41.6161 67.9303 40.9541 67.9789 40.2952 67.9819C37.2578 67.9971 34.2174 67.991 31.18 67.988C30.1747 67.988 29.1756 67.9242 28.2377 67.4993C28.1795 67.472 28.0906 67.4781 28.0262 67.4993C25.9819 68.2126 23.9437 68.0457 21.9576 67.3263C21.1945 67.0501 20.5876 66.8953 19.8459 67.4234C19.1747 67.903 18.295 67.9789 17.4675 67.985C14.0593 68.0032 10.6541 68.0183 7.24593 67.985C4.60702 67.9607 2.46156 66.956 1.0241 64.6827C0.362077 63.6325 0.0310641 62.4761 0.0279992 61.2469C0.0218693 58.5274 -0.063949 55.8048 0.0801031 53.0944C0.294649 49.0576 1.83018 45.5034 4.52426 42.4561C6.37242 40.3679 8.6037 38.8018 11.2058 37.7637C11.4909 37.6514 11.7575 37.4997 12.1345 37.3176C11.6656 37.1658 11.3131 37.0808 10.9821 36.9412C8.34011 35.8334 6.86588 33.8271 6.47969 31.0439C6.36323 30.2031 6.43679 29.3351 6.43679 28.4791C6.43679 24.6397 6.39694 20.8002 6.47357 16.9607C6.51954 14.6813 7.07736 12.4747 8.07346 10.4077C10.5775 5.23276 14.6324 1.91835 20.2597 0.534312C20.9922 0.355237 21.7615 0.318815 22.5124 0.215619C22.6166 0.200443 22.7239 0.191338 22.8281 0.121529C22.6381 0.0820717 22.445 0.0395793 22.2549 0.00012207C23.6525 0.00012207 25.0532 0.00012207 26.4508 0.00012207ZM34.2879 65.7177C34.3461 65.7298 34.4074 65.7511 34.4687 65.7511C36.7306 65.7571 38.9956 65.8057 41.2576 65.7541C43.9271 65.6964 45.8427 63.6416 45.8151 60.9919C45.7937 58.8916 45.8151 56.7882 45.7814 54.6879C45.7661 53.7105 45.763 52.715 45.5944 51.7559C44.632 46.329 41.6223 42.3924 36.6019 40.031C35.0357 39.2935 33.3684 38.7714 31.744 38.1644C31.6428 38.128 31.4681 38.1978 31.3639 38.2676C30.708 38.7137 30.1134 39.2935 29.3993 39.6091C26.6225 40.8353 23.7414 41.1419 20.7776 40.3376C19.3065 39.9369 17.8874 39.4392 16.8085 38.2979C16.6154 38.0946 16.4591 38.0855 16.217 38.1796C14.988 38.653 13.7559 39.1174 12.5176 39.5727C9.92469 40.5257 7.73938 42.0433 5.95559 44.1406C3.69673 46.7994 2.41252 49.8589 2.2746 53.3281C2.16733 56.0051 2.19798 58.6913 2.23169 61.3713C2.24088 61.9783 2.42785 62.6279 2.69756 63.1772C3.54348 64.8921 4.9932 65.7602 6.91185 65.7905C9.07263 65.8239 11.2334 65.7905 13.3942 65.7996C13.6517 65.7996 13.7467 65.7359 13.7436 65.4597C13.7283 63.8237 13.7313 62.1878 13.7313 60.5518C13.7313 60.051 13.8325 60.0571 13.2103 60.0571C11.6073 60.0571 10.0074 60.0571 8.40448 60.0571C8.20219 60.0571 7.99684 60.0419 7.79762 60.0085C7.22447 59.9084 6.86281 59.4743 6.87814 58.9341C6.89653 58.3574 7.27964 57.9051 7.85892 57.8748C8.64354 57.8323 9.4343 57.8505 10.222 57.8384C10.3906 57.8384 10.5561 57.8141 10.8135 57.7959C10.6541 57.6229 10.5622 57.5257 10.4733 57.4256C10.3722 57.3102 10.271 57.201 10.1821 57.0765C8.59144 54.8487 7.80988 52.4115 8.13783 49.6555C8.58837 45.8555 11.4817 42.4136 16.168 42.0403C19.38 41.7853 22.163 42.8932 24.4617 45.1271C26.5213 47.1303 28.5319 49.179 30.5885 51.1792C32.4704 53.0094 33.8649 55.0733 34.0366 57.8019H37.0341C36.985 57.6472 36.9544 57.5409 36.9176 57.4377C36.1452 55.4011 35.5139 53.319 35.0419 51.1944C34.8028 50.1139 34.6158 49.0242 34.4197 47.9346C34.3522 47.5673 34.3645 47.1971 34.6618 46.9117C34.9376 46.6477 35.2625 46.4656 35.6579 46.5718C36.1176 46.6963 36.4272 46.9725 36.5284 47.4672C36.8747 49.1517 37.2118 50.8423 37.6011 52.5177C37.9965 54.2204 38.5236 55.8868 39.3052 57.465C39.4431 57.7443 39.5994 57.8718 39.9488 57.8444C40.5894 57.7959 41.1012 58.2724 41.1411 58.8673C41.184 59.4743 40.7855 59.9326 40.1327 60.0207C39.9335 60.048 39.7281 60.048 39.5228 60.048C37.9076 60.048 36.2954 60.048 34.6802 60.048C34.5576 60.048 34.435 60.0571 34.2848 60.0662V65.7268L34.2879 65.7177ZM39.4216 23.5804C39.4216 21.4406 39.4278 19.3008 39.4216 17.161C39.4125 14.138 38.5114 11.3699 36.7735 8.91442C34.2296 5.32078 30.7908 3.07475 26.3436 2.4313C24.5874 2.17634 22.8465 2.16116 21.1178 2.5436C16.2814 3.61805 12.6985 6.34667 10.3752 10.6718C9.13087 12.9846 8.64048 15.4886 8.63435 18.0928C8.62209 22.0719 8.64354 26.048 8.62209 30.0271C8.6037 33.123 10.7921 35.3174 13.9275 35.2961C14.6508 35.2901 15.3895 35.2112 16.0975 35.3144C16.9832 35.4418 17.4859 35.023 17.9088 34.3735C18.0253 34.1944 18.1173 33.9971 18.2399 33.8241C18.4544 33.5206 18.3594 33.3233 18.0836 33.1017C16.5112 31.8391 15.3159 30.3063 14.706 28.3668C14.4976 27.7082 14.2125 27.0678 14.0501 26.4001C13.8815 25.702 13.5168 25.3347 12.8211 25.0737C10.6112 24.2451 9.4864 21.9505 10.1239 19.6954C10.5561 18.1656 11.5951 17.1731 13.0908 16.642C13.3513 16.5509 13.4432 16.4265 13.431 16.1503C13.4034 15.5099 13.4034 14.8664 13.4095 14.226C13.4157 13.5036 13.7099 13.1394 14.3995 12.936C15.5856 12.587 16.358 11.8069 16.7319 10.6505C16.8423 10.3076 16.8453 9.93121 16.9158 9.57609C17.0231 9.0419 17.3143 8.74749 17.7648 8.68679C18.3287 8.61091 18.6904 8.79909 18.9693 9.27561C19.1287 9.5427 19.3095 9.80676 19.521 10.0374C20.2658 10.8418 21.1945 11.3851 22.1998 11.7918C24.1889 12.5991 26.2853 12.8753 28.4155 12.9451C28.9855 12.9633 29.5709 12.9451 30.1196 13.0665C31.8421 13.452 32.9669 14.6448 33.9385 15.9985C34.1561 16.302 34.3553 16.5175 34.7568 16.5782C35.0878 16.6268 35.4066 16.7907 35.7131 16.9394C37.2517 17.7043 38.3704 19.6377 38.1742 21.1856C37.9198 23.2131 36.8594 24.6063 34.8702 25.2437C34.5024 25.362 34.3185 25.5532 34.2113 25.9205C33.9569 26.7764 33.6381 27.6111 33.3653 28.4609C32.7401 30.3974 31.5478 31.9301 29.9387 33.1563C29.6384 33.387 29.5924 33.5934 29.8039 33.8757C30.1042 34.2794 30.3954 34.6921 30.7326 35.0655C30.849 35.1929 31.0789 35.2779 31.2628 35.281C32.2803 35.3052 33.2948 35.287 34.3124 35.3022C37.3007 35.3508 39.5289 32.9682 39.4339 30.194C39.3604 27.9935 39.4186 25.79 39.4186 23.5864L39.4216 23.5804ZM18.577 12.1287C18.5157 12.1712 18.4881 12.1803 18.4759 12.1985C17.8476 13.3033 16.9832 14.1562 15.8155 14.6995C15.7174 14.745 15.6316 14.9301 15.6285 15.0546C15.6132 15.7223 15.6193 16.387 15.6285 17.0548C15.6439 18.0958 15.322 18.4661 14.2861 18.5845C12.9866 18.7332 12.0855 19.6863 12.0855 20.9125C12.0855 22.1751 12.9682 23.1524 14.3045 23.2404C15.0523 23.289 15.4262 23.6502 15.6377 24.3027C15.981 25.3681 16.3427 26.4243 16.6982 27.4866C17.017 28.4336 17.4185 29.3442 18.0927 30.103C19.2574 31.4172 20.6489 32.434 22.2641 33.1412C23.4962 33.6814 24.7283 33.6875 25.939 33.0926C26.506 32.8134 27.0669 32.519 27.6033 32.1851C29.5372 30.9862 30.9134 29.3654 31.5264 27.1437C31.7838 26.2119 32.1608 25.3165 32.4367 24.3877C32.6543 23.6563 33.068 23.2981 33.8649 23.2344C35.3208 23.116 36.277 21.8048 35.9889 20.442C35.7744 19.4343 34.9438 18.7029 33.7975 18.6027C33.1876 18.5481 32.7983 18.287 32.498 17.7711C32.219 17.2945 31.8911 16.8393 31.5294 16.4204C30.7785 15.5493 29.8621 15.0637 28.6423 15.088C27.5573 15.1092 26.46 14.9969 25.3812 14.8421C22.9016 14.487 20.56 13.7464 18.577 12.1287ZM25.09 48.7207C24.6211 50.3445 23.8027 51.6284 22.353 52.454C20.891 53.2826 19.3494 53.4495 17.7617 52.9426C16.0117 52.3842 14.8194 51.2065 14.1696 49.5008C13.5137 47.7798 13.7681 46.1408 14.7029 44.5625C13.0387 45.0664 11.828 46.0649 11.0495 47.5431C9.96453 49.6039 10.0044 51.7134 10.8411 53.8502C11.4357 55.3677 12.5238 56.5302 13.5965 57.7048C13.6731 57.7898 13.8447 57.8262 13.9704 57.8262C15.1136 57.8262 16.2599 57.7716 17.4001 57.8262C18.1142 57.8596 18.8191 58.066 19.5302 58.1753C19.6988 58.2026 19.9103 58.1965 20.0543 58.1206C21.4611 57.3497 22.7545 56.4179 23.9223 55.3252C25.2157 54.1112 26.2792 52.7271 26.9872 51.0942C27.0424 50.9698 27.0669 50.7452 26.9933 50.6663C26.3895 50.0228 25.7612 49.4036 25.0869 48.7268L25.09 48.7207ZM31.8482 57.8657C31.6245 55.5074 30.3556 53.9078 28.8047 52.4752C28.2653 53.2856 27.7841 54.0869 27.2293 54.8305C25.7857 56.767 24.0019 58.3392 21.9025 59.5502C21.7124 59.6595 21.6573 59.7505 21.8075 59.9569C22.8955 61.4502 23.0917 63.0649 22.4112 64.7737C22.2825 65.0924 22.3561 65.229 22.6656 65.3261C23.6556 65.6297 24.667 65.7753 25.7061 65.7329C25.798 65.7298 25.89 65.6964 26.0279 65.6691C25.9574 65.5295 25.9145 65.4293 25.8593 65.3352C24.0479 62.1574 26.2056 58.1389 29.8744 57.8718C30.5027 57.8262 31.1341 57.8657 31.8451 57.8657H31.8482ZM22.9415 47.4975C22.9415 47.0696 22.9354 46.6689 22.5645 46.329C21.455 45.3061 20.1401 44.6961 18.6843 44.3531C18.5464 44.3197 18.3778 44.344 18.2429 44.3956C16.3611 45.1149 15.4967 47.2092 16.3243 49.0303C16.9924 50.4993 18.6414 51.334 20.2229 50.9819C21.5715 50.6845 23.0089 49.522 22.9415 47.4975ZM18.5923 36.9837C18.9908 37.3692 19.5271 37.6514 20.1003 37.8487C21.8841 38.4618 23.6985 38.7623 25.5957 38.4467C26.742 38.2554 27.8638 38.0187 28.8813 37.442C29.5893 37.0414 29.5587 37.0565 29.0284 36.4313C28.5534 35.8698 28.1427 35.2537 27.6799 34.6284C25.2279 36.1065 22.7331 36.0489 20.3639 34.6041C19.7509 35.4267 19.1839 36.1885 18.5923 36.9837ZM32.0505 65.745C32.0505 63.8814 32.0505 62.0603 32.0413 60.2422C32.0413 60.1724 31.8911 60.048 31.8083 60.0449C31.1739 60.0328 30.5333 59.9903 29.9081 60.0632C28.817 60.1906 27.9986 60.7825 27.6216 61.8114C27.2416 62.8464 27.3213 63.8632 28.0844 64.7525C29.1664 66.0121 30.613 65.7936 32.0535 65.745H32.0505ZM15.9718 60.0267V65.7146C16.7472 65.7146 17.5135 65.7845 18.2613 65.6995C19.426 65.569 20.3669 64.5856 20.5631 63.4383C20.7807 62.1696 20.2351 61.0132 19.1869 60.4092C18.1755 59.8264 17.0905 60.0905 15.9718 60.0298V60.0267Z" fill="#EDF7FA"/>
</svg>
