<svg width="46" height="66" viewBox="0 0 46 66" fill="none" xmlns="http://www.w3.org/2000/svg">
<g id="Group 7">
<path id="Vector" d="M44.4102 66.0008C45.2289 65.6591 45.3471 64.9964 45.3324 64.204C45.291 62.1039 45.3678 59.9978 45.2762 57.9006C45.1402 54.799 43.89 52.1687 41.6081 50.045C41.1707 49.6385 40.6682 49.3056 40.08 48.8491C40.2042 48.7754 40.3401 48.7195 40.4495 48.6282C43.0062 46.422 44.7589 43.7092 45.5422 40.422C46.5797 36.0803 45.8792 32.0008 43.4555 28.2541C41.7559 25.6238 41.0495 22.7813 41.147 19.6709C41.215 17.5118 41.2416 15.338 41.0554 13.1878C40.819 10.4868 39.7756 8.03907 38.0967 5.8859C35.6849 2.8049 32.5488 0.907995 28.6798 0.274711C27.6689 0.109763 26.6315 0.0508525 25.6058 0.0302339C23.7437 -0.00805771 21.8787 -0.0110032 20.0165 0.0272884C16.8125 0.0920896 13.8154 0.863813 11.176 2.75777C7.83599 5.15247 5.77584 8.36897 5.06942 12.4073C4.88617 13.4588 4.87139 14.5428 4.8507 15.6149C4.82114 17.3233 4.86253 19.0347 4.8507 20.746C4.83888 23.5619 3.96103 26.0862 2.42405 28.4485C0.357994 31.6238 -0.333645 35.1584 0.145184 38.8903C0.440758 41.1908 1.30678 43.3174 2.56592 45.2762C2.63095 45.3793 2.70485 45.4794 2.78169 45.5707C3.21914 46.0921 3.75412 46.1746 4.26546 45.8034C4.72656 45.4706 4.80341 44.8726 4.48419 44.3307C4.09404 43.6679 3.66545 43.0229 3.35806 42.3218C1.40137 37.8653 1.72058 33.5472 4.28616 29.4205C5.35318 27.7033 6.24581 25.9242 6.61527 23.9301C6.79557 22.9492 6.92267 21.9478 6.94336 20.9551C6.99361 18.855 6.94336 16.7519 6.96109 14.6517C7.00838 8.96396 11.0134 3.90358 16.5613 2.56926C17.4953 2.3454 18.4737 2.23347 19.4343 2.2158C21.9466 2.16867 24.4649 2.10976 26.9714 2.23053C31.2483 2.43377 34.5794 4.41609 36.9676 7.94187C38.3095 9.92125 38.9923 12.1333 39.0219 14.5251C39.0485 16.6017 39.0307 18.6782 39.0337 20.7548C39.0337 23.7121 39.8229 26.4485 41.416 28.9345C42.4476 30.5457 43.2693 32.2335 43.6062 34.1245C44.5077 39.2084 42.9885 43.4647 39.1785 46.9316C38.88 47.2025 38.5667 47.4588 38.2386 47.6915C38.1292 47.771 37.9283 47.8152 37.8071 47.771C36.4681 47.2762 35.073 47.1495 33.6602 47.0818C31.6355 46.9846 29.9537 45.5855 29.4453 43.6296C29.4128 43.5 29.3892 43.3675 29.3685 43.2349C29.2029 42.2394 29.2266 42.2276 30.0749 41.7386C34.4316 39.2349 36.941 35.4883 37.612 30.528C37.6918 29.936 37.6918 29.3321 37.6948 28.7342C37.7036 26.3395 37.7007 23.9448 37.6977 21.5501C37.6977 21.3675 37.6918 21.1819 37.6652 21.0023C37.5854 20.5104 37.275 20.2158 36.7903 20.1569C36.273 20.095 35.8829 20.2953 35.7055 20.7696C35.6228 20.9905 35.5844 21.2438 35.5814 21.4824C35.5696 23.8771 35.5607 26.2718 35.5755 28.6665C35.5903 30.8962 35.1528 33.014 34.0267 34.9522C32.0286 38.3866 29.1054 40.6311 25.1477 41.2408C20.9683 41.8859 17.2293 40.852 14.1494 37.8182C12.2784 35.9743 11.0962 33.774 10.6173 31.2055C10.4932 30.5369 10.4459 29.8476 10.437 29.1643C10.4075 26.9669 10.4134 24.7666 10.4045 22.5663C10.4045 22.4956 10.4163 22.422 10.4252 22.3189C11.8114 22.1716 13.0706 21.7033 14.1376 20.8078C15.2105 19.9065 15.8076 18.6959 16.2243 17.3557C16.6884 17.6355 17.0992 17.8918 17.516 18.1363C21.2047 20.3159 25.1654 21.7799 29.3626 22.6311C29.9507 22.7489 30.5419 22.8609 31.136 22.9257C31.4286 22.9581 31.7626 22.9404 32.0286 22.8285C32.4306 22.6606 32.6257 22.2894 32.5873 21.8447C32.5459 21.3646 32.2533 21.0435 31.804 20.9316C31.2365 20.7902 30.6483 20.7254 30.0719 20.6164C25.3221 19.721 20.921 17.9654 16.8982 15.2821C16.6529 15.1201 16.4076 14.961 16.1652 14.7931C15.7544 14.5045 15.3169 14.4014 14.8558 14.6488C14.4095 14.8874 14.3238 15.3204 14.312 15.7769C14.2854 16.7283 14.0105 17.6031 13.4785 18.3925C12.6893 19.5678 11.5632 20.1363 10.1592 20.1716C9.86657 20.1805 9.571 20.1598 9.27542 20.1657C8.77295 20.1775 8.42122 20.475 8.32664 20.9699C8.29708 21.126 8.28526 21.285 8.28526 21.4441C8.28526 23.9861 8.26161 26.528 8.29117 29.0671C8.36506 35.232 12.2459 40.6547 18.0835 42.7136C20.9535 43.7268 23.8797 43.8476 26.8265 43.0258C27.063 42.961 27.2137 42.9227 27.2463 43.2526C27.4088 44.9198 28.1862 46.2835 29.3773 47.4323C29.4897 47.5413 29.6315 47.6179 29.7911 47.7357C29.1823 48.207 28.662 48.6105 28.1389 49.0111C26.5103 50.2659 24.8758 51.5148 23.2531 52.7784C23.0225 52.9581 22.8984 52.9375 22.6678 52.7578C21.4708 51.8064 20.256 50.8756 19.0323 49.9566C18.5032 49.559 17.8707 49.6355 17.519 50.0862C17.1643 50.5398 17.2648 51.2114 17.7791 51.612C19.2451 52.7548 20.7171 53.8947 22.1979 55.0199C22.8895 55.5442 23.1201 55.5266 23.8856 54.9374C26.1172 53.2232 28.3635 51.5236 30.5626 49.7651C31.3192 49.1584 32.002 48.799 33.0247 49.1024C33.7932 49.3321 34.6533 49.2349 35.4661 49.3469C37.6031 49.6444 39.3795 50.6517 40.8042 52.2394C42.4062 54.0214 43.1924 56.1215 43.151 58.5339C43.1156 60.5486 43.154 62.5663 43.1362 64.581C43.1303 65.1849 43.3225 65.6238 43.8929 65.8712C43.9461 65.8947 43.9816 65.9507 44.0259 65.989H44.3924L44.4102 66.0008Z" fill="#EDF7FA"/>
<path id="Vector_2" d="M1.96299 66.0007C2.03097 65.9507 2.09304 65.8888 2.16693 65.8535C2.67236 65.6119 2.84971 65.1996 2.84971 64.6605C2.84379 62.5221 2.80241 60.3837 2.85857 58.2482C2.96202 54.2511 4.96896 51.5088 8.57791 49.8711C9.77793 49.3262 11.0666 49.285 12.3494 49.2025C14.5899 49.0611 16.3722 48.0803 17.6549 46.2305C17.8973 45.8829 18.0835 45.5088 17.921 45.067C17.7791 44.6782 17.4983 44.4367 17.0874 44.3866C16.6914 44.3365 16.3042 44.4161 16.0825 44.7784C15.0776 46.4367 13.5583 47.0729 11.6755 47.1377C7.72961 47.2761 4.68226 49.067 2.50389 52.3159C1.37775 53.9949 0.780697 55.877 0.73045 57.8947C0.674292 60.1156 0.709759 62.3395 0.683157 64.5633C0.677246 65.1731 0.839811 65.6414 1.44574 65.8829C1.4812 65.8977 1.49598 65.9595 1.51963 66.0007H1.96003H1.96299Z" fill="#EDF7FA"/>
</g>
</svg>
