<svg width="27" height="66" viewBox="0 0 27 66" fill="none" xmlns="http://www.w3.org/2000/svg">
<g id="Group 9">
<path id="Vector" d="M11.2042 16.8367C10.9896 16.6857 10.7842 16.5256 10.565 16.3838C7.80699 14.6088 5.29101 12.5639 3.31384 9.90595C1.58325 7.57283 0.510187 4.97894 0.126625 2.106C0.0581321 1.57075 -0.0605894 0.998906 0.336671 0.518557C0.628908 0.170875 0.971374 -0.0898856 1.46909 0.0656561C1.95768 0.221198 2.3321 0.527706 2.35037 1.06295C2.51019 5.57824 4.85722 8.94068 8.10836 11.7404C9.66544 13.0808 11.4463 14.1559 13.1403 15.3225C13.3047 15.4368 13.6426 15.4734 13.807 15.3819C17.2408 13.4422 20.3184 11.0771 22.5285 7.73752C23.775 5.8573 24.5695 3.81696 24.6426 1.525C24.6517 1.16817 24.807 0.779318 24.9988 0.472809C25.2271 0.106829 25.6061 -0.10361 26.0764 0.0519318C26.5558 0.212048 26.9074 0.477384 26.9394 1.04923C27.0353 2.67784 26.6152 4.21038 26.0536 5.70633C24.7294 9.23804 22.3549 11.9646 19.46 14.3023C17.2042 16.123 14.6426 17.436 12.1769 18.9182C9.42799 20.5697 6.99877 22.6055 5.03073 25.1673C1.32297 29.9891 1.40973 36.2428 5.30014 41.0051C7.50105 43.6951 10.2179 45.708 13.1906 47.4144C13.3321 47.4967 13.6061 47.483 13.7522 47.4006C16.7476 45.6805 19.4919 43.6448 21.6563 40.9136C22.9531 39.2805 23.9896 37.4963 24.4006 35.4194C25.1266 31.7413 24.3549 28.3834 22.1495 25.3549C20.7979 23.5021 19.1814 21.9101 17.3275 20.5697C16.8937 20.2541 16.6335 19.8515 16.7248 19.3162C16.8572 18.5111 17.7431 18.1222 18.4371 18.63C22.702 21.7363 25.9988 25.5699 26.8481 30.9681C27.428 34.6462 26.3549 38.0224 24.291 41.0921C22.2088 44.1892 19.4234 46.5269 16.2864 48.4711C14.7613 49.4181 13.1723 50.2644 11.6472 51.216C9.18599 52.7485 6.97594 54.583 5.21795 56.9161C3.49192 59.2127 2.3869 61.7379 2.37777 64.6749C2.37777 65.416 1.83439 66.0062 1.23621 65.9879C0.592379 65.9696 0.0718307 65.3749 0.0900955 64.6109C0.154022 61.9712 0.934844 59.542 2.28188 57.2913C4.31841 53.8922 7.23165 51.3898 10.5148 49.2717C10.6746 49.1711 10.8253 49.0613 10.9759 48.9469C11.017 48.9149 11.0353 48.8554 11.0718 48.7959C10.2864 48.2699 9.48735 47.7758 8.72936 47.2268C6.35037 45.5021 4.21338 43.5304 2.58781 41.0555C-1.09712 35.4377 -0.772918 29.3624 3.0901 24.0191C5.0627 21.2925 7.59238 19.1698 10.4234 17.3903C10.6472 17.2484 10.8709 17.1112 11.0947 16.9648C11.1221 16.9465 11.1403 16.9099 11.1997 16.8367H11.2042Z" fill="#EDF7FA"/>
<path id="Vector_2" d="M26.9898 64.0115C26.9898 64.3135 27.0172 64.62 26.9852 64.9173C26.9213 65.4754 26.4236 65.9512 25.903 65.9924C25.4327 66.029 24.8893 65.6173 24.7386 65.082C24.6838 64.8853 24.6382 64.6703 24.6427 64.469C24.6884 61.4268 23.4555 58.8695 21.6199 56.5684C20.4236 55.0679 19.0491 53.732 17.4738 52.6204C17.1679 52.4008 16.8711 52.1538 16.6153 51.8793C16.2363 51.4721 16.2455 50.9094 16.5879 50.4794C16.935 50.0448 17.4144 49.9121 17.903 50.2049C18.4373 50.5251 18.9395 50.9048 19.4236 51.2937C21.4373 52.8994 23.2181 54.7293 24.5788 56.9298C25.9213 59.0982 26.8163 61.4314 26.9852 64.0161L26.9898 64.0115Z" fill="#EDF7FA"/>
<path id="Vector_3" d="M13.6336 37.0708C11.5514 37.0708 9.46464 37.0708 7.38245 37.0708C7.04455 37.0708 6.70209 37.0434 6.36419 36.9885C5.78428 36.897 5.43725 36.4761 5.42355 35.8814C5.40985 35.305 5.70665 34.9344 6.31396 34.8155C6.5925 34.7606 6.8756 34.7286 7.15871 34.7286C11.5331 34.7194 15.9076 34.7103 20.2866 34.7148C21.387 34.7148 21.9532 35.488 21.5742 36.4121C21.3916 36.8558 21.0263 36.9793 20.6199 36.9976C19.6199 37.0434 18.6153 37.0663 17.6108 37.0754C16.2866 37.0891 14.9578 37.0754 13.6336 37.0754V37.0708Z" fill="#EDF7FA"/>
<path id="Vector_4" d="M13.6108 31.0459C11.5468 31.0459 9.4829 31.0459 7.41897 31.0459C7.04455 31.0459 6.66098 31.0322 6.29112 30.9636C5.73861 30.8583 5.44637 30.4878 5.41897 29.9251C5.39158 29.3258 5.64729 28.9507 6.24089 28.7951C6.54683 28.7128 6.8756 28.6762 7.19523 28.6762C11.4007 28.667 15.6016 28.667 19.8071 28.6762C20.145 28.6762 20.492 28.7036 20.8208 28.7768C21.3687 28.9003 21.7569 29.4173 21.7386 29.9251C21.7203 30.4695 21.3413 30.9132 20.766 31.0139C20.4692 31.0642 20.1633 31.055 19.8619 31.055C17.7797 31.055 15.6975 31.055 13.6153 31.055C13.6153 31.055 13.6153 31.0459 13.6153 31.0413L13.6108 31.0459Z" fill="#EDF7FA"/>
<path id="Vector_5" d="M13.5559 60.9374C15.3322 60.9374 17.113 60.9374 18.8893 60.9374C19.2089 60.9374 19.5331 60.9465 19.8527 60.9785C20.5788 61.0517 20.9989 61.4452 21.0171 62.0536C21.0354 62.6621 20.5879 63.1744 19.903 63.2751C19.5514 63.3254 19.1861 63.3208 18.8253 63.3208C15.1724 63.3208 11.524 63.3208 7.87101 63.3208C7.62444 63.3208 7.37786 63.3163 7.13585 63.2751C6.53311 63.179 6.09019 62.6621 6.10846 62.1039C6.12672 61.4543 6.51941 60.9831 7.19978 60.974C9.3185 60.9465 11.4372 60.9648 13.5559 60.9648C13.5559 60.9557 13.5559 60.9465 13.5559 60.9374Z" fill="#EDF7FA"/>
<path id="Vector_6" d="M13.3733 5.00641C11.3322 5.00641 9.28654 5.01556 7.24544 5.00183C6.55138 4.99726 6.11302 4.52606 6.10389 3.86729C6.09476 3.28172 6.56964 2.76478 7.19978 2.70073C7.44179 2.67328 7.69293 2.67786 7.93494 2.67786C11.6427 2.67786 15.3505 2.67328 19.0582 2.68701C19.4692 2.68701 19.8984 2.7236 20.282 2.8517C20.8253 3.03469 21.1222 3.59738 21.0034 4.12348C20.8801 4.65873 20.5057 4.97896 19.9532 4.99268C18.7797 5.02471 17.6107 5.02928 16.4372 5.03386C15.4144 5.03843 14.3961 5.03386 13.3733 5.03386V5.00641Z" fill="#EDF7FA"/>
<path id="Vector_7" d="M13.6015 40.7581C14.2088 40.7581 14.8116 40.7444 15.4189 40.7627C15.6792 40.7719 16.0125 40.749 16.186 40.8954C16.4782 41.1424 16.7613 41.481 16.8846 41.8332C17.0399 42.277 16.7568 42.6521 16.3413 42.8397C16.0536 42.9677 15.7248 43.0638 15.4143 43.0684C14.0718 43.0775 12.7294 43.0684 11.3869 43.0226C10.7385 42.9998 10.1221 42.4279 10.1084 41.9339C10.0947 41.4169 10.7111 40.8405 11.3869 40.7764C11.7613 40.7398 12.1449 40.7581 12.5239 40.7536C12.8846 40.7536 13.2454 40.7536 13.6015 40.7536V40.7581Z" fill="#EDF7FA"/>
<path id="Vector_8" d="M13.8025 57.3782C12.7705 57.3233 12.0719 57.305 11.3732 57.2455C10.6929 57.186 10.1541 56.6599 10.1632 56.111C10.1769 55.4888 10.6837 54.9902 11.4143 54.9764C12.8527 54.949 14.2911 54.9536 15.7248 54.9764C16.3595 54.9856 16.839 55.4339 16.8984 55.9966C16.9623 56.5959 16.6883 57.0442 15.9988 57.1723C15.1678 57.3233 14.3139 57.337 13.7933 57.3828L13.8025 57.3782Z" fill="#EDF7FA"/>
<path id="Vector_9" d="M13.5559 25.0347C12.8025 25.0347 12.0445 25.0621 11.2911 25.0255C10.7066 24.9981 10.1495 24.4033 10.1541 23.8864C10.1632 23.3603 10.7157 22.7519 11.2911 22.7427C12.7797 22.7198 14.2728 22.7107 15.7614 22.7473C16.492 22.7656 16.9212 23.2734 16.9121 23.9504C16.9029 24.5314 16.4463 24.9935 15.7568 25.0301C15.0217 25.0667 14.2865 25.0392 13.5513 25.0392L13.5559 25.0347Z" fill="#EDF7FA"/>
<path id="Vector_10" d="M13.5149 11.0176C12.798 11.0176 12.0811 11.0359 11.3642 11.013C10.7432 10.9947 10.1633 10.4412 10.1359 9.89219C10.113 9.39354 10.734 8.75765 11.3413 8.7485C12.7934 8.72106 14.25 8.71191 15.7021 8.7485C16.4646 8.7668 16.9167 9.25173 16.9167 9.89677C16.9167 10.5235 16.4281 10.9673 15.6701 11.0222C15.6153 11.0222 15.556 11.0267 15.5012 11.0267C14.8391 11.0267 14.1815 11.0267 13.5194 11.0267C13.5194 11.0267 13.5194 11.0222 13.5194 11.0176H13.5149Z" fill="#EDF7FA"/>
</g>
</svg>
