<svg width="59" height="61" viewBox="0 0 59 61" fill="none" xmlns="http://www.w3.org/2000/svg">
<g id="Group 10">
<path id="Vector" d="M0 36.4931C0 30.0084 0 23.5238 0 17.0391C0 14.0456 1.56778 12.4422 4.53002 12.4343C9.48547 12.4264 14.4409 12.4106 19.4042 12.458C20.2866 12.458 20.649 12.2131 20.8538 11.3285C21.492 8.57985 22.1932 5.83907 22.9573 3.12199C23.6743 0.562884 25.6202 -0.471817 28.094 0.199554C35.4287 2.18997 42.7713 4.15669 50.1217 6.09182C50.9883 6.32088 51.5477 6.7474 51.9967 7.51355C53.7063 10.4676 55.4159 13.4295 57.2279 16.3283C58.0394 17.6315 58.2048 18.84 57.7952 20.3328C55.0614 30.277 52.4064 40.237 49.7278 50.197C49.5308 50.9236 49.389 51.674 49.1448 52.3848C48.4751 54.3042 46.8759 55.2125 44.7645 54.7623C42.9761 54.3832 41.2192 53.8224 39.4466 53.3485C38.1625 53.0088 38.0049 53.1273 38.0364 54.4384C38.0522 55.1256 38.1231 55.8207 38.1467 56.5079C38.2255 59.1143 36.4607 60.9784 33.853 60.9863C24.0682 61.0021 14.2833 61.0021 4.50638 60.9863C1.68595 60.9863 0.0393915 59.217 0.0315132 56.2393C0.0236349 49.652 0.0315132 43.0725 0.0315132 36.4852L0 36.4931ZM35.4602 24.6612C32.498 24.6612 29.6775 24.6138 26.865 24.6849C25.9117 24.7086 25.6517 24.3294 25.6438 23.5001C25.6438 21.3912 25.6123 19.2902 25.6045 17.1813C25.6045 14.9934 25.6045 14.9855 23.4537 14.9855C17.025 14.9855 10.5884 14.9697 4.15974 14.9697C2.91497 14.9697 2.71801 15.1514 2.66286 16.3756C2.60772 17.6868 2.59196 19.0058 2.59196 20.3249C2.59196 27.0386 2.61559 33.7444 2.63135 40.4581C2.63923 46.0187 2.66286 51.5792 2.66286 57.1318C2.66286 57.9059 2.99375 58.2929 3.76582 58.3166C4.09671 58.3166 4.41972 58.3719 4.75061 58.3719C9.60364 58.3719 14.4645 58.3877 19.3176 58.3719C24.2415 58.364 29.1576 58.3482 34.0815 58.2929C35.4287 58.2771 35.4602 58.1586 35.4602 56.8475C35.4602 46.4847 35.4602 36.114 35.4602 25.7512C35.4602 25.4273 35.4602 25.1035 35.4602 24.6533V24.6612ZM38.0994 32.0225C38.0994 32.765 38.0916 33.3811 38.0994 33.9972C38.1467 36.5642 38.1546 36.5326 40.652 37.1566C42.2986 37.5752 43.9372 38.0491 45.5523 38.5941C45.8674 38.6968 46.0329 39.2497 46.2692 39.5893C45.9226 39.7631 45.5759 40.079 45.2293 40.079C44.6227 40.079 44.0082 39.8973 43.4015 39.7473C41.6998 39.3286 40.006 38.8863 38.1073 38.4045C38.1073 39.8894 38.0679 41.1295 38.1388 42.3617C38.1546 42.6065 38.517 42.9619 38.7848 43.0409C40.2975 43.4753 41.8259 43.8308 43.3464 44.2257C44.0239 44.3995 44.8748 44.589 44.6384 45.4974C44.3863 46.4531 43.5197 46.0266 42.8973 45.8765C41.3532 45.5053 39.8169 45.0708 38.2491 44.6601C38.1782 44.8655 38.0994 44.984 38.0994 45.1024C38.0758 46.7137 38.0364 48.325 38.0915 49.9284C38.0915 50.1575 38.517 50.4813 38.8085 50.5682C40.4393 51.0658 42.1095 51.437 43.7167 51.982C46.7498 53.0088 46.6159 52.219 47.2383 49.9126C49.8223 40.3081 52.3276 30.6798 54.8881 21.0673C55.1008 20.2617 54.9038 19.9695 54.1081 19.7799C51.5949 19.1638 49.1133 18.4293 46.6001 17.829C45.7099 17.6157 45.6153 17.2129 45.8359 16.4309C46.5134 14.0693 47.1122 11.6761 47.8134 9.3144C48.0655 8.45347 47.9 8.05855 47.0098 7.84529C44.9457 7.33978 42.8973 6.7474 40.8411 6.2024C36.4056 5.02553 31.978 3.84076 27.5425 2.67968C26.1087 2.30845 25.8093 2.47432 25.4154 3.88815C24.9742 5.46784 24.596 7.07124 24.1864 8.65883C23.8634 9.90679 23.5403 11.1627 23.2095 12.4343C23.9973 12.4343 24.6591 12.5212 25.2893 12.4185C27.3928 12.0947 29.063 12.7423 30.3314 14.4721C31.2847 15.7754 32.6792 16.2493 34.1918 16.5968C36.3583 17.0944 38.4933 17.7421 40.652 18.295C41.3217 18.4687 41.5029 18.8795 41.3453 19.464C41.1798 20.0721 40.7308 20.1353 40.1793 19.9695C39.0133 19.6298 37.8473 19.3218 36.6735 19.0216C36.1141 18.8795 35.539 18.8005 34.9639 18.6899C35.7517 19.7483 36.6419 20.5224 37.4377 21.3833C37.7607 21.7387 38.1073 22.3311 38.0364 22.7418C37.8552 23.7528 38.3515 24.0293 39.1394 24.203C39.5569 24.2899 39.9666 24.4005 40.3763 24.5111C43.1258 25.2614 45.8753 26.0039 48.617 26.7622C49.1684 26.9122 49.6254 27.2045 49.3969 27.8837C49.1842 28.5077 48.7036 28.5709 48.1127 28.405C46.5056 27.9548 44.8905 27.5125 43.2755 27.0939C41.6131 26.6674 39.943 26.2724 38.1309 25.8222C38.1309 27.2519 38.0837 28.4682 38.1625 29.6688C38.1782 29.9294 38.6036 30.2928 38.9109 30.3797C41.558 31.1379 44.213 31.8409 46.8759 32.5517C47.4588 32.7097 48.0103 32.923 47.837 33.6496C47.6716 34.3447 47.0649 34.3921 46.4898 34.2578C45.442 34.0051 44.4021 33.697 43.3621 33.4206C41.6368 32.9546 39.9036 32.4965 38.1152 32.0146L38.0994 32.0225ZM50.4605 10.2543C50.3187 10.357 50.2241 10.3807 50.2162 10.4281C49.7514 12.0631 49.2709 13.6981 48.8612 15.3488C48.8218 15.5068 49.1684 15.9096 49.3969 15.9728C50.9489 16.3835 52.5088 16.7469 54.0766 17.1023C54.2578 17.1418 54.4705 17.0628 54.7305 17.0312C53.273 14.717 51.8864 12.5054 50.4683 10.2543H50.4605ZM28.2594 16.2572C28.2594 18.1528 28.2437 19.8589 28.2831 21.5571C28.2831 21.7387 28.614 22.0626 28.803 22.0626C30.5835 22.1021 32.364 22.0863 34.1288 22.0863C32.2774 20.2459 30.3708 18.3503 28.2673 16.2572H28.2594Z" fill="#EDF7FA"/>
<path id="Vector_2" d="M18.9868 46.785C15.1501 46.785 11.3133 46.7929 7.4766 46.7692C7.09056 46.7692 6.55484 46.6823 6.34213 46.4296C5.78277 45.7661 6.17668 44.9841 7.07481 44.921C8.0202 44.8578 8.97348 44.8815 9.92675 44.8894C16.7178 44.8973 23.5089 44.9052 30.3 44.9368C31.0091 44.9368 32.0175 44.7472 32.0254 45.8609C32.0254 46.9825 31.0406 46.7771 30.3158 46.785C26.5421 46.7929 22.7684 46.785 19.0025 46.785H18.9868Z" fill="#EDF7FA"/>
<path id="Vector_3" d="M18.9946 50.9001C22.7683 50.9001 26.542 50.9001 30.3157 50.9001C31.0641 50.9001 32.0016 50.9791 32.0253 51.8085C32.0568 52.7405 31.0562 52.859 30.3157 52.8669C28.1807 52.8669 26.0535 52.7721 23.9185 52.7721C18.5376 52.7563 13.1568 52.7721 7.77589 52.7484C7.11412 52.7484 6.13721 53.0011 6.13721 51.8796C6.13721 50.7501 7.11412 51.0186 7.77589 51.0186C11.5181 50.987 15.2603 51.0028 18.9946 51.0028C18.9946 50.9712 18.9946 50.9396 18.9946 50.9159V50.9001Z" fill="#EDF7FA"/>
<path id="Vector_4" d="M18.9708 34.5582C15.1341 34.5582 11.2895 34.574 7.45277 34.5424C7.0431 34.5424 6.48374 34.3923 6.26314 34.1001C5.75893 33.4366 6.31829 32.7652 7.32671 32.7652C13.2039 32.7652 19.0732 32.7652 24.9505 32.7494C26.6522 32.7494 28.3618 32.6862 30.0635 32.6783C30.4495 32.6783 30.8828 32.6783 31.2216 32.8284C31.5603 32.9864 31.7967 33.3418 32.0803 33.6025C31.7809 33.9105 31.5052 34.2738 31.1586 34.5108C30.9774 34.6372 30.6465 34.574 30.3865 34.574C26.5813 34.574 22.776 34.574 18.963 34.574C18.963 34.5661 18.963 34.5582 18.963 34.5503L18.9708 34.5582Z" fill="#EDF7FA"/>
<path id="Vector_5" d="M18.9315 40.6321C15.0948 40.6321 11.258 40.6321 7.41343 40.6321C6.78317 40.6321 6.13715 40.5926 6.16079 39.7791C6.16866 39.479 6.51531 38.9971 6.79105 38.9261C7.38192 38.7681 8.02006 38.7918 8.64245 38.7918C15.9299 38.7918 23.2094 38.7918 30.4968 38.8076C30.6938 38.8076 30.9301 38.7523 31.0798 38.8471C31.395 39.0445 31.907 39.3526 31.8834 39.5658C31.844 39.9371 31.5289 40.3794 31.198 40.5768C30.8986 40.7585 30.4338 40.6716 30.0399 40.6716C26.3371 40.6716 22.6264 40.6716 18.9236 40.6716C18.9236 40.6637 18.9236 40.6558 18.9236 40.64L18.9315 40.6321Z" fill="#EDF7FA"/>
<path id="Vector_6" d="M14.1731 26.6597C16.3002 26.6597 18.4353 26.6439 20.5624 26.6597C21.2163 26.6597 22.0435 26.4543 22.1775 27.4732C22.2641 28.1604 21.6654 28.5158 20.4994 28.5158C17.285 28.5158 14.0786 28.5237 10.8642 28.5237C9.65096 28.5237 8.43771 28.5158 7.22445 28.4921C6.5548 28.4842 6.07422 28.2393 6.08998 27.4574C6.10573 26.6123 6.72024 26.6675 7.2796 26.6597C9.57218 26.6518 11.8648 26.6597 14.1652 26.6597H14.1731Z" fill="#EDF7FA"/>
<path id="Vector_7" d="M21.8938 22.3392C20.8224 22.3392 19.7115 22.3392 18.5928 22.3392C14.89 22.3629 11.1793 22.4024 7.47653 22.4024C6.9802 22.4024 6.29479 22.592 6.21601 21.7074C6.16086 21.0281 6.36569 20.6174 7.0905 20.5937C7.68137 20.5779 8.27224 20.5779 8.86311 20.5779C12.4714 20.5779 16.0796 20.5779 19.6879 20.5937C20.1133 20.5937 20.5387 20.5937 20.9642 20.6253C22.1774 20.7359 22.335 21.0044 21.8859 22.3392H21.8938Z" fill="#EDF7FA"/>
<path id="Vector_8" d="M27.645 8.88809C28.1177 8.88809 28.6219 8.78541 29.071 8.90389C33.3804 10.0334 37.682 11.1866 41.9756 12.3555C42.5035 12.4977 43.1416 12.6794 43.0234 13.4297C42.921 14.0695 42.5114 14.3775 41.8102 14.188C37.359 12.9637 32.8998 11.7473 28.4407 10.5468C27.5505 10.3098 27.4559 9.70954 27.645 8.89599V8.88809Z" fill="#EDF7FA"/>
</g>
</svg>
